<?xml version="1.0" encoding="UTF-8" standalone="no"?>
<!-- Created with Inkscape (http://www.inkscape.org/) -->

<svg
   xmlns:dc="http://purl.org/dc/elements/1.1/"
   xmlns:cc="http://creativecommons.org/ns#"
   xmlns:rdf="http://www.w3.org/1999/02/22-rdf-syntax-ns#"
   xmlns:svg="http://www.w3.org/2000/svg"
   xmlns="http://www.w3.org/2000/svg"
   xmlns:sodipodi="http://sodipodi.sourceforge.net/DTD/sodipodi-0.dtd"
   xmlns:inkscape="http://www.inkscape.org/namespaces/inkscape"
   width="744.09448"
   height="1052.3622"
   viewBox="0 0 744.09449 1052.3622"
   id="svg2"
   version="1.1"
   inkscape:version="0.91 r13725"
   sodipodi:docname="map2.svg">
  <defs
     id="defs4" />
  <sodipodi:namedview
     id="base"
     pagecolor="#ffffff"
     bordercolor="#666666"
     borderopacity="1.0"
     inkscape:pageopacity="0.0"
     inkscape:pageshadow="2"
     inkscape:zoom="2.8284271"
     inkscape:cx="260.20169"
     inkscape:cy="309.86928"
     inkscape:document-units="px"
     inkscape:current-layer="layer1"
     showgrid="false"
     inkscape:window-width="1600"
     inkscape:window-height="848"
     inkscape:window-x="-8"
     inkscape:window-y="-8"
     inkscape:window-maximized="1"
     units="px" />
  <metadata
     id="metadata7">
    <rdf:RDF>
      <cc:Work
         rdf:about="">
        <dc:format>image/svg+xml</dc:format>
        <dc:type
           rdf:resource="http://purl.org/dc/dcmitype/StillImage" />
        <dc:title></dc:title>
      </cc:Work>
    </rdf:RDF>
  </metadata>
  <g
     inkscape:label="Layer 1"
     inkscape:groupmode="layer"
     id="layer1">
    <path
       style="fill:none;fill-rule:evenodd;stroke:#000000;stroke-width:1px;stroke-linecap:butt;stroke-linejoin:miter;stroke-opacity:1"
       d="m 208.24295,795.32889 c 0,-1.06066 10.42982,-11.49049 10.42982,-11.49049 0,0 3.35876,-5.65685 4.06587,-6.18718 0.7071,-0.53033 5.48007,-9.8995 5.48007,-9.8995 l 5.12653,-7.60139 1.94454,0 5.48008,2.65165 2.82843,0.53033 3.35875,1.06066 3.00521,0.17677 2.82842,-0.88388 1.94455,-1.94454 2.2981,-1.76777 3.18198,-1.23744 2.12132,-1.23743 2.29809,-1.76777 1.94455,0 1.41421,4.94975 4.77297,11.66726 2.82843,4.41942 3.35876,4.77297 3.88908,4.94974 3.18198,3.18199 1.59099,5.48007 0.88389,6.36396 -0.53033,7.07107 -1.41422,6.54074 -2.12132,7.07107 -1.59099,7.95495 -1.76776,3.71231 -1.94455,0 -0.17677,3.35876 -3.54626,12.40469 -3.17126,-1.79809 -7.95495,-3.53554 -5.83363,-2.65165 -3.0052,-1.59099 -2.2981,1.23744 -2.82843,-1.41421 -0.88388,-1.94455 -3.18198,-1.59099 -8.83884,-3.71231 -4.94975,-3.53553 -6.18718,-6.54074 -1.23744,-4.06586 -3.71231,-5.65686 -5.65685,-7.77817 -4.06587,-7.24785 z"
       id="path4149"
       inkscape:connector-curvature="0"
       sodipodi:nodetypes="ccscccccccccccccccccccccccccccccccccccccccccccccc" />
    <path
       style="fill:none;fill-rule:evenodd;stroke:#000000;stroke-width:1px;stroke-linecap:butt;stroke-linejoin:miter;stroke-opacity:1"
       d="m 284.56555,908.37713 -1.59269,-0.74301 -0.36498,0.75862 0.35355,2.56326 -1.94454,0.17678 -0.44194,2.03293 -0.53033,2.82843 -1.06066,3.97747 -1.14905,2.47488 -1.32583,3.62392 -2.03293,2.2981 -3.53553,0 -3.88909,-1.14905 -2.82843,-1.76777 -2.56326,-0.61872 -51.44202,30.67076 -3.27037,-2.47487 -2.74004,0.26516 -12.0467,6.95517 -1.29994,26.19046 1.14905,1.14905 2.74004,0.35355 1.76777,-0.88388 1.5026,-2.2981 0.70711,-2.74004 1.85615,-1.14904 1.5026,-1.23744 2.47488,-0.26517 1.5026,0 0.97227,1.59099 1.5026,0.17678 1.14905,0 1.67938,2.20971 c 0,0 1.06066,1.75321 1.06066,1.76777 l 1.76777,0.61872 2.12132,0.26516 1.81472,0.21182 2.25114,-0.94102 1.45841,-0.50824 1.5468,1.59099 1.76776,1.41422 3.62392,0.79549 9.19239,-0.13257 2.07713,1.67938 2.20971,1.5026 0.17677,5.39169 1.93963,0.73513 c 0,0 1.5,1.5 1.75,1.625 0.25,0.125 5.5,-0.5625 5.5,-0.5625 l 2.25,1.9375 2.9375,4.6875 3.875,2 1.625,1.9375 0.0625,1.875 0.8125,2.3125 1.9375,2.25 0.5,2.25 -0.75,2.375 -1.6875,1.8125 -0.9375,0.625 -1.75,1.125 -0.375,1 -0.25,3.9375 -5.4375,0.6875 -0.5625,8.75 -3.4375,3.75 0.5,1.875 4.0625,3.25 1.3125,0.125 1.25,-1.8125 0.125,-1.75 8.4375,0.125 0.1875,-2.9375 2.3125,-0.1875 -0.125,-2.4375 6.875,0.062 0.0625,-3.1875 5.4375,0.062 0.4375,1 4.375,-0.25 0.75,-1.1875 0.3125,-7.125 -2.4375,-0.75 -9.875,-5.8125 0.0625,-3 7.0625,0.4375 2.625,-1.3125 1.75,-0.6875 2.625,-1.375 1.875,-2.125 1.125,-2.1875 1.375,-2.1875 2.5,-5.75 -0.125,5.0625 c 0,0 2.25,1.875 2.5,1.875 0.25,0 3.6875,-0.625 3.6875,-0.625 l 4.625,-0.4375 3.25,-0.375 -0.0625,5.8125 -3.625,20.5 0.5625,3.4375 1.625,2.9375 1.6875,2.625 1.25,2.8125 2.8125,1.4375 4.0625,2 3.8125,1.0625 1.875,0 1.125,-2.0625 2.875,1.1875 1.5625,-0.5 0.75,-2.375 -1.25,-4.375 -0.75,-5 0.25,-4.1875 0.5,-1.9375 1.1875,-0.125 2.3125,2 1.25,-0.25 0.625,-1.875 1.1875,-2.0625 0.0625,-2.75 -2.25,-1 -1.125,-1.5625 -1.6875,-1.625 1.0625,-1.625 -0.1875,-1.25 -2.3125,-0.75 -2.4375,-3.1875 -5.8125,-9.6875 -8.5625,-8.6875 -0.3125,-5.125 1.625,-3.8125 0.0625,-2.1875 1.1875,-2.375 0.8125,-2.125 0.1875,-3.1875 2.125,-1.6875 -0.75,-2 0,-2.875 0.4375,-1.0625 0.875,-1.0625 1.3125,-0.9375 -0.1875,-1.25 -1.8125,-0.4375 0.25,-2.0625 0.5,-11.75 2,-2.625 c 0,0 1.875,-3.125 1.9375,-3.375 0.0625,-0.25 0.75,-4.5625 0.75,-4.5625 l -1.625,-1.9375 c 0,0 0.125,-3.8125 0.3125,-4 0.1875,-0.1875 0.90094,-3.80152 0.90094,-3.80152 l 0.57452,-3.93328 1.32583,-9.28078 0.44194,-3.27036 -17.85444,23.15774 c 0,0 1.76776,-5.92202 1.59099,-6.27557 -0.17678,-0.35355 0,-6.71751 0,-6.71751 l -5.74525,-4.15426 -3.8007,0 -4.06586,0.97228 -1.94454,-1.59099 -2.74004,-2.47488 0.17677,-2.2981 0.53033,-2.82842 -2.38648,-2.12132 -1.59099,-1.06066 -1.74567,-0.95017 z"
       id="path4151"
       inkscape:connector-curvature="0"
       sodipodi:nodetypes="cccccccccccccccccccccccccccccccccccccccccccccccsccccccccccccccccccccccccccccccccccccccccccccccscccccccccccccccccccccccccccccccccccccccccccccccccccccsccscccccccccccccccccc" />
    <path
       style="fill:none;fill-rule:evenodd;stroke:#000000;stroke-width:0.47665694px;stroke-linecap:butt;stroke-linejoin:miter;stroke-opacity:1"
       d="m 306.27502,862.9127 -1.24899,-3.28849 -5.5061,1.74301 -23.94637,-11.187 -2.228,0.89452 -0.33253,3.968 2.0061,1.39651 3.91176,7.2187 -2.2843,2.26851 -2.42377,1.9687 -6.17778,0.12899 -1.52774,-2.126 -2.5994,0.58901 -1.10912,3.22153 -1.03633,2.247 c 1.99517,1.08593 1.69889,0.33869 2.54834,0.50803 l 0.2782,2.05051 4.37128,0.3455 0.62086,2.27601 -1.8361,2.216 -1.94165,2.932 0.47025,2.30401 9.88216,2.96001 0.68235,3.77251 4.0645,1.78953 -0.1189,9.42648 -2.65425,0.10124 -0.0643,3.22993 3.0303,0.70332 3.4026,1.6235 0.4093,1.99198 5.92834,4.33191 -0.62142,4.85749 4.73255,4.23048 3.63573,-0.80201 4.3135,0.10499 5.51788,3.78699 0.0814,7.50799 -1.30581,4.97847 18.03678,-23.64389 5.4127,-6.29859 6.15741,-4.48384 3.97475,-2.06396 -1.96,-7.07481 -4.23161,0.005 -0.69166,-1.63609 -0.0641,-2.7734 -0.12816,-2.16974 -0.65792,-1.96335 -1.16723,-1.9972 -0.76232,-2.42409 -1.6186,-2.97793 -1.67438,-3.47018 -1.38601,-2.93278 -2.38433,-1.34368 -2.23072,-0.96427 -2.26334,-1.08416 -3.11124,-1.22603 -3.68676,-1.85757 -5.04248,-2.44049 z"
       id="path4151-9"
       inkscape:connector-curvature="0"
       sodipodi:nodetypes="ccccccccccccccccccccccccccccccccccccccccccccccccccccccccccccc" />
    <path
       sodipodi:nodetypes="cccccccccccccccccccccccccccccccccccccccccccccccccccccccccccccccccccccc"
       inkscape:connector-curvature="0"
       id="path4152"
       d="m 275.62519,849.58693 3.16266,-12.42247 0.6341,-3.33386 2.12653,0.0236 2.00134,-7.67778 1.76777,-7.24784 2.2097,-7.86657 1.23744,-9.104 -0.97227,-5.48008 -1.32583,-6.18718 -2.82842,-3.0052 -4.59619,-6.01041 -3.00521,-3.88909 -3.44714,-6.27557 -3.8891,-8.92722 -1.85615,-6.62913 -0.15847,-4.08876 1.11206,-8.48413 2.42601,-8.2949 4.64832,-7.49351 10.52025,-6.81452 6.01949,-5.28917 3.01602,-7.99641 9.51228,5.13898 9.54476,3.70096 -0.90514,4.60544 2.95464,3.89458 -0.0752,9.29055 -6.32881,7.32762 0.32751,4.08532 4.1912,1.58425 10.23939,-0.26977 -0.36517,3.04317 -2.23738,0.0402 -1.77522,1.60367 -1.69589,5.63588 -1.65,6.02841 -4.24689,5.01387 -3.77688,1.60477 -0.63037,4.46599 3.08899,1.19926 1.56431,-2.1477 0.21141,2.53887 2.12852,1.5916 -1.61709,2.59573 -0.80492,4.54846 -5.22412,3.80304 0.94765,2.17543 -0.71284,9.34656 -4.80474,0.12206 -1.5026,1.94454 2.91682,3.09359 6.18717,0.53033 0.61872,4.68458 5.48007,0.0884 -1.67936,3.88909 -2.12428,7.19323 2.47783,2.08754 -3.27038,8.48529 0.0884,4.15425 -1.5026,4.77297 0.7955,8.75045 -1.59099,4.77297 -3.35875,5.3033 -6.46308,1.79809 -3.17126,-1.79809 -7.95495,-3.53554 -5.83363,-2.65165 -3.0052,-1.59099 z"
       style="fill:none;fill-rule:evenodd;stroke:#000000;stroke-width:1px;stroke-linecap:butt;stroke-linejoin:miter;stroke-opacity:1" />
    <text
       xml:space="preserve"
       style="font-style:normal;font-weight:normal;font-size:10px;line-height:125%;font-family:sans-serif;letter-spacing:0px;word-spacing:0px;fill:#000000;fill-opacity:1;stroke:none;stroke-width:1px;stroke-linecap:butt;stroke-linejoin:miter;stroke-opacity:1"
       x="228.39549"
       y="800.98578"
       id="text4154"
       sodipodi:linespacing="125%"><tspan
         sodipodi:role="line"
         id="tspan4156"
         x="228.39549"
         y="800.98578">Ясенево</tspan></text>
    <text
       xml:space="preserve"
       style="font-style:normal;font-weight:normal;font-size:7.5px;line-height:125%;font-family:sans-serif;letter-spacing:0px;word-spacing:0px;fill:#000000;fill-opacity:1;stroke:none;stroke-width:1px;stroke-linecap:butt;stroke-linejoin:miter;stroke-opacity:1"
       x="270.69516"
       y="753.27637"
       id="text4158"
       sodipodi:linespacing="125%"><tspan
         sodipodi:role="line"
         id="tspan4160"
         x="270.69516"
         y="753.27637">Битцевский </tspan><tspan
         sodipodi:role="line"
         x="270.69516"
         y="762.65137"
         id="tspan4162">лесопарк</tspan></text>
    <text
       xml:space="preserve"
       style="font-style:normal;font-weight:normal;font-size:7.5px;line-height:125%;font-family:sans-serif;letter-spacing:0px;word-spacing:0px;fill:#000000;fill-opacity:1;stroke:none;stroke-width:1px;stroke-linecap:butt;stroke-linejoin:miter;stroke-opacity:1"
       x="288.85312"
       y="887.42957"
       id="text4164"
       sodipodi:linespacing="125%"><tspan
         sodipodi:role="line"
         id="tspan4166"
         x="288.85312"
         y="887.42957">Северное</tspan><tspan
         sodipodi:role="line"
         x="288.85312"
         y="896.80457"
         id="tspan4168">Бутово</tspan></text>
    <text
       xml:space="preserve"
       style="font-style:normal;font-weight:normal;font-size:13.75px;line-height:125%;font-family:sans-serif;letter-spacing:0px;word-spacing:0px;fill:#000000;fill-opacity:1;stroke:none;stroke-width:1px;stroke-linecap:butt;stroke-linejoin:miter;stroke-opacity:1"
       x="245.18927"
       y="959.02411"
       id="text4170"
       sodipodi:linespacing="125%"><tspan
         sodipodi:role="line"
         id="tspan4172"
         x="245.18927"
         y="959.02411">Южное</tspan><tspan
         sodipodi:role="line"
         x="245.18927"
         y="976.21161"
         id="tspan4174">Бутово</tspan></text>
    <path
       style="fill:none;fill-rule:evenodd;stroke:#000000;stroke-width:1px;stroke-linecap:butt;stroke-linejoin:miter;stroke-opacity:1"
       d="m 234.09531,759.22386 5.54914,-8.445 3.10897,-10.31654 -5.2097,-2.80482 -20.36091,-15.80951 12.28598,-16.88217 5.39168,3.44714 6.18719,-8.92723 5.21492,-8.83883 2.56325,-2.74004 8.22013,0.7955 3.96979,0.59895 4.58677,1.80842 6.97347,5.83597 7.04645,4.73869 11.30797,2.89421 3.59215,0.65239 -1.23743,4.33103 -1.76776,5.3033 -4.86138,4.33103 -4.68458,3.44714 -5.65686,3.62393 -2.1213,1.50261 -2.03589,3.30414 -1.94159,4.12047 -1.32584,3.35877 -0.53031,2.65165 -0.70711,3.0052 -0.26516,2.91682 -0.61872,4.15425 -0.35354,4.15425 -1.7785,0.29549 -3.6132,2.62133 -4.24264,1.67937 -3.09359,3.0052 -3.20672,1.39503 -3.92552,-0.0145 -2.81024,-1.29701 -2.78544,-0.1719 z"
       id="path4150"
       inkscape:connector-curvature="0"
       sodipodi:nodetypes="cccccccccccccccccccccccccccccccccccccccc" />
    <path
       sodipodi:nodetypes="ccccccccccccccccccccccccccccccc"
       inkscape:connector-curvature="0"
       id="path4153"
       d="m 199.22031,777.09886 -6.70086,-10.32 -5.76603,-9.94154 -5.4597,-9.17982 -9.73591,-13.93451 -4.08902,-0.88217 10.89168,-9.80286 9.81219,-8.05223 9.08992,-8.08883 2.06325,-1.49004 3.97013,5.7955 4.59479,4.22395 9.33677,6.68342 4.34847,3.46097 5.17145,3.23869 4.93297,4.01921 4.34215,3.52739 3.63757,2.45603 3.24505,1.85973 -2.89283,9.20533 -2.86872,4.52925 -3.72854,5.52925 -9.6535,15.92049 -2.3632,2.99633 -2.49264,4.42937 -3.34359,3.7552 -5.20672,5.64503 -4.05052,3.4855 -0.18524,-6.42201 -3.03544,-6.6719 z"
       style="fill:none;fill-rule:evenodd;stroke:#000000;stroke-width:1px;stroke-linecap:butt;stroke-linejoin:miter;stroke-opacity:1" />
    <path
       sodipodi:nodetypes="ccccccccccccccccccc"
       inkscape:connector-curvature="0"
       id="path4155"
       d="m 310.89445,714.84136 -2.64103,-1.00404 -7.0847,-3.05482 -6.86091,-4.30951 12.03598,-23.00717 8.51668,-14.67786 16.43719,0.19777 2.33992,-1.46383 9.68825,3.75996 3.47013,0.7955 5.09479,0.34895 -0.28823,2.55842 -8.15153,13.71097 0.1714,34.48869 -6.06703,0.26921 -7.28285,-0.72261 -6.98743,-2.66897 -9.01776,-4.3217 z"
       style="fill:none;fill-rule:evenodd;stroke:#000000;stroke-width:1px;stroke-linecap:butt;stroke-linejoin:miter;stroke-opacity:1" />
    <path
       style="fill:none;fill-rule:evenodd;stroke:#000000;stroke-width:1px;stroke-linecap:butt;stroke-linejoin:miter;stroke-opacity:1"
       d="m 274.39965,698.05887 -5.55784,-4.09763 -3.37239,-3.40837 1.97792,-4.04435 16.19024,-29.45952 -10.31004,-7.43001 5.83059,-9.1714 5.34512,-9.242 7.83209,7.29549 7.80116,5.74525 5.53674,3.70771 6.16411,4.32619 7.44548,5.2344 -0.4348,3.63563 -3.93688,7.49259 -20.42309,36.43323 -5.44831,-1.145 -2.06794,-0.36906 -3.00995,-0.54765 -5.04029,-1.75844 z"
       id="path4157"
       inkscape:connector-curvature="0"
       sodipodi:nodetypes="ccccccccccccccccccccc" />
    <path
       sodipodi:nodetypes="ccccccccccccccccccccccccc"
       inkscape:connector-curvature="0"
       id="path4159"
       d="m 203.77628,700.97308 2.06716,-1.59763 4.06632,-4.38865 11.47012,-9.492 14.20709,-19.82951 11.81146,-14.60311 4.6147,1.34836 5.95041,10.02727 9.21686,-0.36015 0.57196,-5.23482 3.04751,-6.59959 2.91411,-0.17381 9.94548,6.4844 -18.4348,34.13563 -4.56405,-1.58722 -11.62283,-1.29519 -2.86765,2.78034 -11.37392,18.10288 -5.16328,-3.67388 -12.39324,16.34889 -4.82331,-3.145 -4.81794,-3.11906 -4.25995,-4.29765 -3.66529,-5.38344 z"
       style="fill:none;fill-rule:evenodd;stroke:#000000;stroke-width:1px;stroke-linecap:butt;stroke-linejoin:miter;stroke-opacity:1" />
    <path
       sodipodi:nodetypes="cccccccccccccccccccccccccccccccc"
       inkscape:connector-curvature="0"
       id="path4161"
       d="m 321.52465,668.80887 -6.43284,-0.22263 3.77533,-7.35219 0.60228,-3.55618 -8.27208,-6.29435 2.57723,-2.80908 -0.51199,-6.65044 7.43996,-3.93001 5.95559,-12.1714 9.97012,-15.742 3.20709,-0.82951 3.17616,3.49525 -0.33826,2.83271 0.16411,5.57619 1.94548,5.2344 8.6902,-0.48937 0.65388,6.32069 -0.84076,2.9219 -3.16699,6.701 -4.0155,5.90028 -2.90632,1.68822 0.66866,5.6729 1.01669,6.56654 3.68667,3.57528 2.42397,3.09298 -5.02795,0.6273 -2.85232,2.23373 -6.32331,-2.52 -4.31794,-1.36906 -1.50995,1.82735 -4.41529,-0.50844 z"
       style="fill:none;fill-rule:evenodd;stroke:#000000;stroke-width:1px;stroke-linecap:butt;stroke-linejoin:miter;stroke-opacity:1" />
    <path
       style="fill:none;fill-rule:evenodd;stroke:#000000;stroke-width:1px;stroke-linecap:butt;stroke-linejoin:miter;stroke-opacity:1"
       d="m 287.30472,633.95138 -2.80784,-2.72263 -3.72467,-5.22719 2.47728,-3.55618 2.22792,-4.91935 1.81416,-2.13719 4.16174,-7.79229 10.03911,-9.29881 3.82048,-5.7656 4.6902,-4.61437 3.77888,-4.17931 3.03424,-3.0781 5.08301,-4.924 8.7345,18.40028 9.09368,14.81322 -2.95634,1.0479 -10.23331,15.94154 -5.93833,12.20028 -7.20103,3.59298 0.59705,7.0023 -2.72732,2.85873 -9.82331,-6.52 -3.56794,-2.49406 -4.88495,-3.04765 -2.91529,-3.13344 z"
       id="path4163"
       inkscape:connector-curvature="0"
       sodipodi:nodetypes="cccccccccccccccccccccccccc" />
    <path
       sodipodi:nodetypes="ccccccccccccccccccccc"
       inkscape:connector-curvature="0"
       id="path4165"
       d="m 254.05472,613.07638 5.44216,-5.84763 12.65033,-16.35219 1.72728,-3.18118 3.60292,-5.79435 11.26271,-16.09486 8.4511,-0.64581 5.20801,-3.049 7.8595,-4.59972 11.34368,17.93822 -15.95634,16.7979 -3.98331,5.69154 -10.06333,9.45028 -4.07603,7.84298 -2.77795,3.2523 -3.72732,7.73373 -5.19831,6.98 -6.69294,-4.61906 -6.38495,-6.79765 -5.16529,-5.00844 z"
       style="fill:none;fill-rule:evenodd;stroke:#000000;stroke-width:1px;stroke-linecap:butt;stroke-linejoin:miter;stroke-opacity:1" />
    <path
       style="fill:none;fill-rule:evenodd;stroke:#000000;stroke-width:1px;stroke-linecap:butt;stroke-linejoin:miter;stroke-opacity:1"
       d="m 254.05472,613.07638 5.44216,-5.84763 12.65033,-16.35219 1.72728,-3.18118 3.60292,-5.79435 11.26271,-16.09486 8.4511,-0.64581 5.20801,-3.049 7.8595,-4.59972 11.34368,17.93822 -15.95634,16.7979 -3.98331,5.69154 -10.06333,9.45028 -4.07603,7.84298 -2.77795,3.2523 -3.72732,7.73373 -5.19831,6.98 -6.69294,-4.61906 -6.38495,-6.79765 -5.16529,-5.00844 z"
       id="path4167"
       inkscape:connector-curvature="0"
       sodipodi:nodetypes="ccccccccccccccccccccc" />
    <path
       sodipodi:nodetypes="ccccccccccccccccccccc"
       inkscape:connector-curvature="0"
       id="path4169"
       d="m 232.92972,636.57638 5.44216,-5.84763 7.02533,-8.47719 8.72728,-8.68118 6.35292,5.45565 5.51271,6.28014 4.5761,4.47919 5.45801,3.451 4.8595,-7.09972 3.34368,5.18822 -2.20634,4.0479 -8.60831,14.19154 -3.06333,0.82528 -2.57603,6.59298 -0.40295,5.1273 -9.60232,0.73373 -5.44831,-10.145 -5.19294,-2.11906 -5.50995,-5.29765 -5.16529,-5.00844 z"
       style="fill:none;fill-rule:evenodd;stroke:#000000;stroke-width:1px;stroke-linecap:butt;stroke-linejoin:miter;stroke-opacity:1" />
    <path
       style="fill:none;fill-rule:evenodd;stroke:#000000;stroke-width:1px;stroke-linecap:butt;stroke-linejoin:miter;stroke-opacity:1"
       d="m 147.54925,671.29021 3.56976,-5.30994 4.77343,-5.71448 4.31066,-2.77448 6.51731,-4.008 6.50816,-5.94105 5.76374,-9.08147 8.69045,-10.30205 1.43869,2.64506 -0.84225,7.58149 5.08044,2.59279 6.44964,13.96833 0.86633,3.41265 3.86794,1.23143 7.22218,-0.63227 6.35744,4.08583 4.71501,7.99061 3.14468,0.81452 1.00763,4.2541 -5.70688,9.91722 -10.04413,7.95872 -6.76147,6.3946 -5.87285,5.69715 -31.34969,25.70428 -0.073,-7.49854 -7.12321,-9.69876 -3.37763,-6.54369 -4.73492,-9.42057 -5.52505,-9.04108 -6.29288,-7.83318 -0.92525,-5.82539 z"
       id="path4160"
       inkscape:connector-curvature="0"
       sodipodi:nodetypes="cccccccccccccccccccccccccccccccc" />
    <path
       sodipodi:nodetypes="cccccccccccccssssssssssssscccccccccccccccccccccccccccccccccccccccccccccccccccccccccccccccccccccccccc"
       inkscape:connector-curvature="0"
       id="path4162"
       d="m 35.649601,920.10341 -18.35055,-25.37409 0.08885,-9.25002 -9.1573217,-13.1941 1.0937855,-16.42855 1.4830872,-14.83435 20.763555,0.0714 6.581936,5.55093 3.727633,1.15958 0.82181,13.9482 7.015281,6.63346 6.163757,-7.0132 4.91717,3.42811 c 0,0 11.460894,11.91119 15.578617,7.24739 2.157355,-2.44345 -14.556781,-13.67713 -9.874647,-13.98465 2.916942,-0.19158 6.196916,3.5163 8.353854,-2.31723 0.848383,-2.29449 -1.111962,-4.62293 -1.478287,-7.38674 -0.151536,-1.1433 3.189947,-6.01943 2.922577,-7.85448 -0.257454,-1.767 -4.124856,-0.4891 -4.224034,-1.82963 -0.229341,-3.09989 0.160857,-4.26733 0.173248,-7.4604 0.01307,-3.36888 0.862488,-6.26766 0.335203,-9.60981 -1.024624,-6.49448 -5.886996,-12.75119 -4.473662,-17.21615 1.649389,-5.2107 12.442634,-2.50646 14.690817,-6.46868 1.696997,-2.9908 4.258864,-3.72155 5.990421,-6.02315 1.230269,-1.63529 7.816096,-0.82868 8.730077,-2.16803 1.730333,-2.53564 -1.408093,-0.51183 -0.922303,-2.46331 2.589787,-10.40349 14.569775,-7.10485 14.569775,-7.10485 l 5.59964,-6.91725 3.37843,3.83622 -4.17728,5.33908 7.80276,6.89468 4.54355,0.45888 4.52774,-3.98376 1.19054,-9.09793 2.64944,-0.14008 19.08348,28.82694 4.73007,2.17077 2.34505,10.67979 -1.80296,4.31022 -3.74655,0.6396 -8.20686,4.92717 1.13924,4.09947 11.58179,7.76937 4.30031,-1.82303 6.16019,-25.09742 18.93246,-0.16069 -6.5073,15.84835 5.46689,0.27718 2.67815,2.66624 -2.50696,5.92955 -4.44072,2.3243 -8.50798,2.1281 -3.82781,7.05109 -3.42305,2.13672 -5.31636,4.83308 -4.98443,9.30111 -0.10807,6.77073 -7.39623,-1.63999 -2.80395,-5.48667 -10.56497,-9.56585 -4.81905,5.42122 -3.80341,0.71008 -2.6692,3.94298 1.74662,6.18118 16.59134,11.7421 -0.36007,15.57631 -8.36647,3.92475 2.08402,5.76426 -4.83462,1.81864 -1.22882,5.971 2.24807,10.44755 -8.80669,3.71608 5.50913,6.51307 -2.04395,15.45356 -8.45484,5.8782 -7.96227,2.82984 -2.20844,4.22059 -4.60334,0.95985 0.76612,-5.04657 -6.07532,-8.36786 -1.8411,3.92968 -3.574753,1.80807 -6.868009,-4.69285 -3.050038,3.87561 -7.289509,6.54575 0.103777,24.40965 -15.608492,9.74668 -11.412499,1.76755 -6.412703,-6.46768 2.643972,-10.16878 -9.11176,-0.71687 -0.734183,-6.86367 -5.315785,-7.68494 1.588778,-21.37156 7.168551,-0.38097 0.214828,-4.11726 4.727998,-1.61646 -3.376065,-7.47963 -2.693017,-9.97964 z"
       style="fill:none;fill-rule:evenodd;stroke:#000000;stroke-width:1px;stroke-linecap:butt;stroke-linejoin:miter;stroke-opacity:1" />
  </g>
</svg>
